<svg xmlns="http://www.w3.org/2000/svg" viewBox="0 0 24 24">
    <path d="M7.27 3.566a1.374 1.374 0 1 1 1.376 0v.858c.817-.219 1.588-.598 2.552-1.183 3.09-1.876 10.969-2.172 10.969 2.342 0 2.214-.594 5.468-1.723 8.565a1.833 1.833 0 0 1-1.462 3.3C17.294 20.596 14.967 23 12.084 23c-2.925 0-5.268-2.441-6.956-5.539a1.833 1.833 0 0 1-1.473-3.264C2.567 11.278 2 8.314 2 6.5c0-2.837 2.737-1.833 4.564-1.833.248 0 .482-.008.707-.023V3.566zm1.147 10.726a2.292 2.292 0 1 0 0-4.584 2.292 2.292 0 0 0 0 4.584zm7.791-.917a1.833 1.833 0 1 0 0-3.667 1.833 1.833 0 0 0 0 3.667zm-7.333 5.042a.458.458 0 1 0 0 .916h6.417a.458.458 0 1 0 0-.916H8.875z"/>
</svg>
