<svg xmlns="http://www.w3.org/2000/svg" viewBox="0 0 24 24">
    <path fill="#D8D8D8" d="M12 24C4.95 24 1 11 1 6c0-3.094 2.985-2 4.978-2 1.993 0 3.193-.425 5.056-1.556C14.405.398 23 .074 23 5c0 6-4 19-11 19zM7.5 3a1.5 1.5 0 1 1 0-3 1.5 1.5 0 0 1 0 3zm1 16a.5.5 0 1 0 0 1h7a.5.5 0 1 0 0-1h-7zM8 15.5a3.5 3.5 0 1 0 0-7 3.5 3.5 0 0 0 0 7zm8.5-1a3 3 0 1 0 0-6 3 3 0 0 0 0 6z"/>
    <path fill="#9B9B9B" d="M6.75 2.8a1.493 1.493 0 0 0 1.5 0v.935c-.473.127-.96.205-1.5.24V2.8zM2.804 14.396c.454 1.218.99 2.43 1.607 3.56a2 2 0 0 1-1.607-3.561zm16.722 3.547a27.698 27.698 0 0 0 1.595-3.6 2 2 0 0 1-1.595 3.6zM8.5 19h7a.5.5 0 1 1 0 1h-7a.5.5 0 1 1 0-1zM8 15.5a3.5 3.5 0 1 1 0-7 3.5 3.5 0 0 1 0 7zm8.5-1a3 3 0 1 1 0-6 3 3 0 0 1 0 6z"/>
    <path fill="#B8E986" d="M8 14.5a2.5 2.5 0 1 1 0-5 2.5 2.5 0 0 1 0 5zm8.5-1a2 2 0 1 1 0-4 2 2 0 0 1 0 4z"/>
</svg>
