<svg xmlns="http://www.w3.org/2000/svg" viewBox="0 0 24 24">
    <g fill="none" fill-rule="evenodd">
        <path fill="#D8D8D8" fill-rule="nonzero" d="M12.083 23C5.621 23 2 11.083 2 6.5c0-2.837 2.737-1.833 4.564-1.833 1.826 0 2.926-.39 4.634-1.426 3.09-1.876 10.969-2.172 10.969 2.342C22.167 11.083 18.5 23 12.083 23zM7.958 3.75a1.375 1.375 0 1 1 0-2.75 1.375 1.375 0 0 1 0 2.75zm.917 14.667a.458.458 0 1 0 0 .916h6.417a.458.458 0 1 0 0-.916H8.875zm-.458-3.209a3.208 3.208 0 1 0 0-6.416 3.208 3.208 0 0 0 0 6.416zm7.791-.916a2.75 2.75 0 1 0 0-5.5 2.75 2.75 0 0 0 0 5.5z"/>
        <path fill="#9B9B9B" fill-rule="nonzero" d="M7.27 3.566a1.369 1.369 0 0 0 1.376 0v.858c-.433.116-.88.187-1.375.22V3.566zm-3.616 10.63a25.312 25.312 0 0 0 1.473 3.265 1.833 1.833 0 0 1-1.473-3.264zm15.329 3.252a25.39 25.39 0 0 0 1.461-3.3 1.833 1.833 0 0 1-1.462 3.3zm-10.108.969h6.417a.458.458 0 1 1 0 .916H8.875a.458.458 0 1 1 0-.916zm-.458-3.209a3.208 3.208 0 1 1 0-6.416 3.208 3.208 0 0 1 0 6.416zm7.791-.916a2.75 2.75 0 1 1 0-5.5 2.75 2.75 0 0 1 0 5.5z"/>
        <path fill="#B8E986" fill-rule="nonzero" d="M8.417 14.75a2.75 2.75 0 1 1 0-5.5 2.75 2.75 0 0 1 0 5.5zm7.791-.917a2.292 2.292 0 1 1 0-4.583 2.292 2.292 0 0 1 0 4.583z"/>
    </g>
</svg>
