<svg xmlns="http://www.w3.org/2000/svg" viewBox="0 0 24 24">
    <path fill="#000" d="M6.75 2.8a1.5 1.5 0 1 1 1.5 0v.935c.892-.238 1.732-.652 2.784-1.29C14.405.397 23 .074 23 5c0 2.415-.648 5.964-1.879 9.343a2 2 0 0 1-1.595 3.6C17.683 21.378 15.144 24 12 24c-3.191 0-5.747-2.663-7.589-6.042a2 2 0 0 1-1.607-3.561C1.62 11.213 1 7.979 1 6c0-3.094 2.985-2 4.978-2 .271 0 .527-.008.772-.024V2.799zM8 14.5a2.5 2.5 0 1 0 0-5 2.5 2.5 0 0 0 0 5zm8.5-1a2 2 0 1 0 0-4 2 2 0 0 0 0 4zm-8 5.5a.5.5 0 1 0 0 1h7a.5.5 0 1 0 0-1h-7z"/>
</svg>
