<svg xmlns="http://www.w3.org/2000/svg" viewBox="0 0 48 48">
    <defs>
        <linearGradient id="announce-read-color-prosilver-a" x1="50%" x2="50%" y1="0%" y2="100%">
            <stop offset="0%" stop-color="#DBDEE3"/>
            <stop offset="100%" stop-color="#FDFDFD"/>
        </linearGradient>
    </defs>
    <g fill="none" fill-rule="evenodd">
        <path fill="#196DB5" d="M46.5 24c0 12.426-10.073 22.5-22.5 22.5S1.5 36.426 1.5 24C1.5 11.573 11.573 1.5 24 1.5S46.5 11.573 46.5 24"/>
        <path fill="#BAD3E8" d="M45 24c0 11.597-9.402 21-21 21S3 35.597 3 24C3 12.402 12.402 3 24 3s21 9.402 21 21"/>
        <path fill="#FFF" d="M44.25 24c0 11.183-9.066 20.25-20.25 20.25S3.75 35.183 3.75 24C3.75 12.816 12.816 3.75 24 3.75S44.25 12.816 44.25 24"/>
        <path fill="url(#announce-read-color-prosilver-a)" d="M42.75 24c0 10.355-8.395 18.75-18.75 18.75S5.25 34.355 5.25 24 13.645 5.25 24 5.25 42.75 13.645 42.75 24"/>
        <path fill="#666" d="M22.428 22.192c.37-.658 0-.987-.37-.987-1.48 0-3.513 3.124-4.253 3.124-.37 0-.555-.329-.555-.493 0-.658 1.85-2.137 2.404-2.63 1.664-1.316 3.884-2.466 6.288-2.466 1.85 0 3.698.986 2.219 4.602l-2.959 7.233c-.37.33-.925 1.315-.925 1.973 0 .329.185.493.555.493 1.295 0 3.514-3.123 4.069-3.123.185 0 .554.164.554.493 0 .986-4.808 5.589-9.061 5.589-1.48 0-2.59-.658-2.59-1.973 0-1.808 1.48-4.767 1.665-5.424l2.96-6.411zm2.22-7.233c0-1.644 1.664-2.959 3.328-2.959s2.774.986 2.774 2.466c0 1.644-1.664 2.959-3.514 2.959-1.48 0-2.589-.987-2.589-2.466z"/>
    </g>
</svg>
