<svg xmlns="http://www.w3.org/2000/svg" viewBox="0 0 48 48">
    <defs>
        <linearGradient id="forum-unread-subforum-color-prosilver-a" x1="50%" x2="50%" y1="0%" y2="100%">
            <stop offset="0%" stop-color="#DBDEE3"/>
            <stop offset="100%" stop-color="#FDFDFD"/>
        </linearGradient>
    </defs>
    <g fill="none" fill-rule="evenodd">
        <path fill="#BC2A4D" d="M48 37.5C48 43.299 43.3 48 37.5 48S27 43.299 27 37.5C27 31.7 31.7 27 37.5 27S48 31.7 48 37.5"/>
        <path fill="#EBC1CA" d="M46.5 37.5a9 9 0 1 1-18 0 9 9 0 0 1 18 0"/>
        <path fill="#FFF" d="M45.75 37.5a8.25 8.25 0 1 1-16.5 0 8.25 8.25 0 0 1 16.5 0"/>
        <path fill="url(#forum-unread-subforum-color-prosilver-a)" d="M44.625 37.5a7.125 7.125 0 1 1-14.25 0 7.125 7.125 0 0 1 14.25 0"/>
        <path fill="#BC2A4D" d="M33.91 41.5h8.59V40h-9v1.5h.41zm0-3.25h8.59v-1.5h-9v1.5h.41zM33.874 35H38v-1.5h-4.5V35h.375z"/>
        <path fill="#BC2A4D" d="M45.948 28.977A11.962 11.962 0 0 0 37.5 25.5c-6.628 0-12 5.372-12 12 0 3.294 1.328 6.279 3.477 8.448A22.574 22.574 0 0 1 24 46.5C11.573 46.5 1.5 36.426 1.5 24 1.5 11.573 11.573 1.5 24 1.5S46.5 11.573 46.5 24c0 1.71-.19 3.376-.552 4.977z"/>
        <path fill="#EBC1CA" d="M44.646 27.859A11.947 11.947 0 0 0 37.5 25.5c-6.628 0-12 5.372-12 12 0 2.677.877 5.15 2.359 7.146-1.25.233-2.54.354-3.859.354-11.598 0-21-9.403-21-21C3 12.402 12.402 3 24 3s21 9.402 21 21c0 1.318-.121 2.608-.354 3.859z"/>
        <path fill="#FFF" d="M43.967 27.39A11.944 11.944 0 0 0 37.5 25.5c-6.628 0-12 5.372-12 12 0 2.381.694 4.601 1.89 6.467a20.385 20.385 0 0 1-3.39.283C12.816 44.25 3.75 35.183 3.75 24 3.75 12.816 12.816 3.75 24 3.75S44.25 12.816 44.25 24c0 1.155-.097 2.288-.283 3.39z"/>
        <path fill="url(#forum-unread-subforum-color-prosilver-a)" d="M42.568 26.62A11.955 11.955 0 0 0 37.5 25.5c-6.628 0-12 5.372-12 12 0 1.811.401 3.529 1.12 5.068-.856.12-1.73.182-2.62.182-10.355 0-18.75-8.395-18.75-18.75S13.645 5.25 24 5.25 42.75 13.645 42.75 24c0 .889-.062 1.764-.182 2.62z"/>
        <path fill="#BC2A4D" d="M12.545 37H12v-2h12v2H12.545zm.046-4H12v-2h13v2H12.59zm.136-4H12v-2h16v2H12.727zm.364-6H12v-2h24v2H13.09zm0-4H12v-2h24v2H13.09zm-.341-4H24v-2H12v2h.75z"/>
    </g>
</svg>
