<svg xmlns="http://www.w3.org/2000/svg" viewBox="0 0 48 48">
    <defs>
        <linearGradient id="sticky-unread-mine-color-prosilver-a" x1="50%" x2="50%" y1="0%" y2="100%">
            <stop offset="0%" stop-color="#DBDEE3"/>
            <stop offset="100%" stop-color="#FDFDFD"/>
        </linearGradient>
    </defs>
    <g fill="none" fill-rule="evenodd">
        <path fill="#BC2A4D" d="M33.407 4.15l-3.52.537 5.262 5.392-1.26 7.728 6.613-3.655.825.457A17.98 17.98 0 0 1 42 19.5c0 9.94-8.059 18-18 18s-18-8.06-18-18c0-9.941 8.059-18 18-18 3.448 0 6.67.97 9.407 2.65z"/>
        <path fill="#BC2A4D" d="M24 46.5c-5.8 0-10.5-4.701-10.5-10.5 0-5.8 4.7-10.5 10.5-10.5S34.5 30.2 34.5 36c0 5.799-4.7 10.5-10.5 10.5z"/>
        <path fill="#EBC1CA" d="M30.94 4.526l-1.054.16 5.263 5.393-1.26 7.728 5.861-3.24c.487 1.558.75 3.215.75 4.933C40.5 28.612 33.113 36 24 36S7.5 28.612 7.5 19.5C7.5 10.387 14.887 3 24 3c2.48 0 4.83.547 6.94 1.526z"/>
        <path fill="#EBC1CA" d="M24 45a9 9 0 1 1 0-18 9 9 0 0 1 0 18z"/>
        <path fill="#FFF" d="M30.215 5.024l4.934 5.055-1.26 7.728 5.19-2.869a15.75 15.75 0 0 1 .671 4.562c0 8.698-7.051 15.75-15.75 15.75S8.25 28.198 8.25 19.5c0-8.699 7.051-15.75 15.75-15.75 2.207 0 4.308.454 6.215 1.274z"/>
        <path fill="#FFF" d="M24 44.25a8.25 8.25 0 1 1 0-16.5 8.25 8.25 0 0 1 0 16.5z"/>
        <path fill="url(#sticky-unread-mine-color-prosilver-a)" d="M35.075 10.532l-1.186 7.275 3.844-2.125a14.27 14.27 0 0 1 .517 3.818c0 5.675-3.318 10.575-8.12 12.867a7.125 7.125 0 1 1-12.261 0C13.068 30.075 9.75 25.175 9.75 19.5c0-7.87 6.38-14.25 14.25-14.25 4.472 0 8.462 2.06 11.075 5.282z"/>
        <path fill="#BC2A4D" d="M24 39a3 3 0 1 0 0-6 3 3 0 0 0 0 6zm0-8s-3-6-3-9 3-3 3-3 3 0 3 3-3 9-3 9zm-8.227-14H32v-2H15v2h.773zm-.023-4H24v-2h-9v2h.75zm24.752-.562L45.134 15l-.885-5.427L48 5.73l-5.182-.794L40.498 0l-2.316 4.94L33 5.73l3.751 3.843L35.866 15z"/>
    </g>
</svg>
