<svg xmlns="http://www.w3.org/2000/svg" viewBox="0 0 48 48">
    <defs>
        <linearGradient id="sticky-unread-locked-color-prosilver-a" x1="50%" x2="50%" y1="0%" y2="100%">
            <stop offset="0%" stop-color="#DBDEE3"/>
            <stop offset="100%" stop-color="#FDFDFD"/>
        </linearGradient>
    </defs>
    <g fill="none" fill-rule="evenodd">
        <path fill="#BC2A4D" d="M41.433 24H38.01c-2.682 0-4.843 2.122-4.843 4.768v3.414H31.5v3.686A17.933 17.933 0 0 1 24 37.5c-9.941 0-18-8.06-18-18 0-9.941 8.059-18 18-18s18 8.059 18 18c0 1.554-.197 3.062-.567 4.5z"/>
        <path fill="#BC2A4D" d="M33.168 30.878v1.304H31.5v11.166A10.468 10.468 0 0 1 24 46.5c-5.8 0-10.5-4.701-10.5-10.5 0-5.8 4.7-10.5 10.5-10.5 3.94 0 7.372 2.17 9.168 5.378z"/>
        <path fill="#EBC1CA" d="M39.879 24H38.01c-2.682 0-4.843 2.122-4.843 4.768v3.414H31.5V34.2A16.43 16.43 0 0 1 24 36c-9.113 0-16.5-7.388-16.5-16.5C7.5 10.387 14.887 3 24 3s16.5 7.387 16.5 16.5c0 1.56-.217 3.07-.621 4.5z"/>
        <path fill="#EBC1CA" d="M32.152 32.182H31.5v8.795a9 9 0 1 1 .652-8.795z"/>
        <path fill="#FFF" d="M39.098 24H38.01c-2.682 0-4.843 2.122-4.843 4.768v3.414H31.5v1.171A15.68 15.68 0 0 1 24 35.25c-8.699 0-15.75-7.052-15.75-15.75 0-8.699 7.051-15.75 15.75-15.75s15.75 7.051 15.75 15.75c0 1.564-.228 3.074-.652 4.5z"/>
        <path fill="#FFF" d="M31.5 32.558v6.884A8.251 8.251 0 0 1 15.75 36a8.25 8.25 0 0 1 15.75-3.442z"/>
        <path fill="url(#sticky-unread-locked-color-prosilver-a)" d="M37.517 24.024c-2.449.242-4.349 2.262-4.349 4.744v1.641c-.92.775-1.94 1.435-3.037 1.958a7.125 7.125 0 1 1-12.261 0c-4.802-2.292-8.12-7.192-8.12-12.867 0-7.87 6.38-14.25 14.25-14.25s14.25 6.38 14.25 14.25a14.25 14.25 0 0 1-.733 4.524z"/>
        <path fill="#BC2A4D" d="M24 39a3 3 0 1 0 0-6 3 3 0 0 0 0 6zm0-8s-3-6-3-9 3-3 3-3 3 0 3 3-3 9-3 9zm-8.182-14H33v-2H15v2h.818zm-.068-4H24v-2h-9v2h.75z"/>
        <path fill="#666" d="M36 37.5V36h9v1.5h-9zm0 3V39h9v1.5h-9zm1.5-12h6V33h-6v-4.5zm8.833 5.182v-4.914c0-1.803-1.497-3.268-3.342-3.268h-4.98c-1.867 0-3.343 1.464-3.343 3.268v4.914H33V43.5h15v-9.818h-1.667z"/>
    </g>
</svg>
