<svg xmlns="http://www.w3.org/2000/svg" viewBox="0 0 48 48">
    <defs>
        <linearGradient id="sticky-read-color-prosilver-a" x1="50%" x2="50%" y1="0%" y2="100%">
            <stop offset="0%" stop-color="#DBDEE3"/>
            <stop offset="100%" stop-color="#FDFDFD"/>
        </linearGradient>
    </defs>
    <g fill="none" fill-rule="evenodd">
        <path fill="#196DB5" d="M24 37.5c-9.941 0-18-8.06-18-18 0-9.941 8.059-18 18-18s18 8.059 18 18c0 9.94-8.059 18-18 18z"/>
        <path fill="#196DB5" d="M24 46.5c-5.8 0-10.5-4.701-10.5-10.5 0-5.8 4.7-10.5 10.5-10.5S34.5 30.2 34.5 36c0 5.799-4.7 10.5-10.5 10.5z"/>
        <path fill="#BAD3E8" d="M24 36c-9.113 0-16.5-7.388-16.5-16.5C7.5 10.387 14.887 3 24 3s16.5 7.387 16.5 16.5C40.5 28.612 33.113 36 24 36z"/>
        <path fill="#BAD3E8" d="M24 45a9 9 0 1 1 0-18 9 9 0 0 1 0 18z"/>
        <path fill="#FFF" d="M24 35.25c-8.699 0-15.75-7.052-15.75-15.75 0-8.699 7.051-15.75 15.75-15.75s15.75 7.051 15.75 15.75c0 8.698-7.051 15.75-15.75 15.75z"/>
        <path fill="#FFF" d="M24 44.25a8.25 8.25 0 1 1 0-16.5 8.25 8.25 0 0 1 0 16.5z"/>
        <path fill="url(#sticky-read-color-prosilver-a)" d="M30.13 32.367a7.125 7.125 0 1 1-12.261 0C13.068 30.075 9.75 25.175 9.75 19.5c0-7.87 6.38-14.25 14.25-14.25s14.25 6.38 14.25 14.25c0 5.675-3.318 10.575-8.12 12.867z"/>
        <path fill="#666" d="M24 39a3 3 0 1 0 0-6 3 3 0 0 0 0 6zm0-8s-3-6-3-9 3-3 3-3 3 0 3 3-3 9-3 9zm-8.182-14H33v-2H15v2h.818zm-.068-4H24v-2h-9v2h.75z"/>
    </g>
</svg>
