<svg xmlns="http://www.w3.org/2000/svg" viewBox="0 0 48 48">
    <defs>
        <linearGradient id="topic-read-hot-mine-color-prosilver-a" x1="50%" x2="50%" y1="0%" y2="100%">
            <stop offset="0%" stop-color="#DBDEE3"/>
            <stop offset="100%" stop-color="#FDFDFD"/>
        </linearGradient>
    </defs>
    <g fill="none" fill-rule="evenodd">
        <path fill="#196DB5" d="M41.06 9.33a22.47 22.47 0 0 1 4.271 7.494l-4.83-2.672-6.612 3.655 1.26-7.728-5.263-5.392 4.45-.678a22.59 22.59 0 0 1 6.724 5.32A22.412 22.412 0 0 1 46.5 24c0 12.426-10.073 22.5-22.5 22.5S1.5 36.426 1.5 24C1.5 11.573 11.573 1.5 24 1.5c6.822 0 12.934 3.036 17.06 7.83z"/>
        <path fill="#BAD3E8" d="M31.615 4.423l-1.729.264 5.263 5.392-1.26 7.728 6.613-3.655 2.793 1.545A20.931 20.931 0 0 1 45 24c0 11.597-9.402 21-21 21S3 35.597 3 24C3 12.402 12.402 3 24 3c2.686 0 5.254.504 7.615 1.423z"/>
        <path fill="#FFF" d="M30.034 4.664l-.148.023 5.263 5.392-1.26 7.728 6.613-3.655 1.685.932A20.168 20.168 0 0 1 44.25 24c0 11.183-9.066 20.25-20.25 20.25S3.75 35.183 3.75 24C3.75 12.816 12.816 3.75 24 3.75c2.102 0 4.129.32 6.034.914z"/>
        <path fill="url(#topic-read-hot-mine-color-prosilver-a)" d="M32.342 7.203l2.807 2.876-1.26 7.728 6.206-3.43A18.663 18.663 0 0 1 42.75 24c0 10.355-8.395 18.75-18.75 18.75S5.25 34.355 5.25 24 13.645 5.25 24 5.25c2.997 0 5.83.703 8.342 1.953z"/>
        <path fill="#666" d="M22.476 12.05c1.325 3.403.635 5.257-.848 6.73-1.626 1.625-4.139 2.844-5.913 5.232-2.365 3.173-2.76 10.16 5.749 11.988-3.58-1.808-4.353-7.046-.476-10.321-1.019 3.173.837 5.203 3.153 4.47 2.25-.734 3.729.801 3.68 2.593-.033 1.21-.543 2.251-1.84 2.832 5.535-.939 7.769-5.34 7.769-8.701 0-4.419-4.123-5.033-2.053-8.735-2.464.205-3.318 1.74-3.072 4.282.148 1.672-1.675 2.815-3.022 2.047-1.084-.63-1.068-1.852-.115-2.763 2.037-1.928 2.825-6.377-3.055-9.704l.043.05z"/>
        <path fill="#BC2A4D" d="M40.502 12.438L45.134 15l-.885-5.427L48 5.73l-5.182-.794L40.498 0l-2.316 4.94L33 5.73l3.751 3.843L35.866 15z"/>
    </g>
</svg>
