<svg xmlns="http://www.w3.org/2000/svg" viewBox="0 0 48 48">
    <defs>
        <linearGradient id="topic-unread-hot-color-prosilver-a" x1="50%" x2="50%" y1="0%" y2="100%">
            <stop offset="0%" stop-color="#DBDEE3"/>
            <stop offset="100%" stop-color="#FDFDFD"/>
        </linearGradient>
    </defs>
    <g fill="none" fill-rule="evenodd">
        <path fill="#BC2A4D" d="M46.5 24c0 12.426-10.073 22.5-22.5 22.5S1.5 36.426 1.5 24C1.5 11.573 11.573 1.5 24 1.5S46.5 11.573 46.5 24"/>
        <path fill="#EBC1CA" d="M45 24c0 11.597-9.402 21-21 21S3 35.597 3 24C3 12.402 12.402 3 24 3s21 9.402 21 21"/>
        <path fill="#FFF" d="M44.25 24c0 11.183-9.066 20.25-20.25 20.25S3.75 35.183 3.75 24C3.75 12.816 12.816 3.75 24 3.75S44.25 12.816 44.25 24"/>
        <path fill="url(#topic-unread-hot-color-prosilver-a)" d="M42.75 24c0 10.355-8.395 18.75-18.75 18.75S5.25 34.355 5.25 24 13.645 5.25 24 5.25 42.75 13.645 42.75 24"/>
        <path fill="#BC2A4D" d="M22.476 12.05c1.325 3.403.635 5.257-.848 6.73-1.626 1.625-4.139 2.844-5.913 5.232-2.365 3.173-2.76 10.16 5.749 11.988-3.58-1.808-4.353-7.046-.476-10.321-1.019 3.173.837 5.203 3.153 4.47 2.25-.734 3.729.801 3.68 2.593-.033 1.21-.543 2.251-1.84 2.832 5.535-.939 7.769-5.34 7.769-8.701 0-4.419-4.123-5.033-2.053-8.735-2.464.205-3.318 1.74-3.072 4.282.148 1.672-1.675 2.815-3.022 2.047-1.084-.63-1.068-1.852-.115-2.763 2.037-1.928 2.825-6.377-3.055-9.704l.043.05z"/>
    </g>
</svg>
