<svg xmlns="http://www.w3.org/2000/svg" viewBox="0 0 48 48">
    <defs>
        <linearGradient id="topic-unread-color-prosilver-a" x1="50%" x2="50%" y1="0%" y2="100%">
            <stop offset="0%" stop-color="#DBDEE3"/>
            <stop offset="100%" stop-color="#FDFDFD"/>
        </linearGradient>
    </defs>
    <g fill="none" fill-rule="evenodd">
        <path fill="#BC2A4D" d="M46.5 24c0 12.426-10.073 22.5-22.5 22.5S1.5 36.426 1.5 24C1.5 11.573 11.573 1.5 24 1.5S46.5 11.573 46.5 24"/>
        <path fill="#EBC1CA" d="M45 24c0 11.597-9.402 21-21 21S3 35.597 3 24C3 12.402 12.402 3 24 3s21 9.402 21 21"/>
        <path fill="#FFF" d="M44.25 24c0 11.183-9.066 20.25-20.25 20.25S3.75 35.183 3.75 24C3.75 12.816 12.816 3.75 24 3.75S44.25 12.816 44.25 24"/>
        <path fill="url(#topic-unread-color-prosilver-a)" d="M42.75 24c0 10.355-8.395 18.75-18.75 18.75S5.25 34.355 5.25 24 13.645 5.25 24 5.25 42.75 13.645 42.75 24"/>
        <path fill="#BC2A4D" d="M13.09 20H36v-2H12v2h1.09zm0 4H36v-2H12v2h1.09zm0 4H36v-2H12v2h1.09zm0 4H36v-2H12v2h1.09zm-.363 4H28v-2H12v2h.727zm.023-20H24v-2H12v2h.75z"/>
    </g>
</svg>
