<svg xmlns="http://www.w3.org/2000/svg" viewBox="0 0 48 48">
    <defs>
        <linearGradient id="topic-moved-color-prosilver-a" x1="50%" x2="50%" y1="0%" y2="100%">
            <stop offset="0%" stop-color="#DBDEE3"/>
            <stop offset="100%" stop-color="#FDFDFD"/>
        </linearGradient>
    </defs>
    <g fill="none" fill-rule="evenodd">
        <path fill="#196DB5" d="M46.5 24c0 12.426-10.073 22.5-22.5 22.5S1.5 36.426 1.5 24C1.5 11.573 11.573 1.5 24 1.5S46.5 11.573 46.5 24"/>
        <path fill="#BAD3E8" d="M45 24c0 11.597-9.402 21-21 21S3 35.597 3 24C3 12.402 12.402 3 24 3s21 9.402 21 21"/>
        <path fill="#FFF" d="M44.25 24c0 11.183-9.066 20.25-20.25 20.25S3.75 35.183 3.75 24C3.75 12.816 12.816 3.75 24 3.75S44.25 12.816 44.25 24"/>
        <path fill="url(#topic-moved-color-prosilver-a)" d="M42.75 24c0 10.355-8.395 18.75-18.75 18.75S5.25 34.355 5.25 24 13.645 5.25 24 5.25 42.75 13.645 42.75 24"/>
        <path fill="#666" d="M13.25 36H27v-2H12v2h1.25zm-.16-4H36v-2H12v2h1.09zm17.183-4H36v-2h-6v2h.273zm0-4H36v-2h-6v2h.273z"/>
        <path fill="#196DB5" d="M12.773 27l5.143-5.549L23.06 27h2.26L27 25.187l-6.257-6.77 5.19-5.593V12H12v15h.773z"/>
    </g>
</svg>
