<svg xmlns="http://www.w3.org/2000/svg" viewBox="0 0 48 48">
    <defs>
        <linearGradient id="topic-unread-locked-color-prosilver-a" x1="50%" x2="50%" y1="0%" y2="100%">
            <stop offset="0%" stop-color="#DBDEE3"/>
            <stop offset="100%" stop-color="#FDFDFD"/>
        </linearGradient>
    </defs>
    <g fill="none" fill-rule="evenodd">
        <path fill="#BC2A4D" d="M45.844 29.416a4.873 4.873 0 0 0-2.853-.916h-4.98c-2.682 0-4.843 2.122-4.843 4.768v3.414H31.5v8.538A22.467 22.467 0 0 1 24 46.5C11.573 46.5 1.5 36.426 1.5 24 1.5 11.573 11.573 1.5 24 1.5S46.5 11.573 46.5 24a22.55 22.55 0 0 1-.656 5.416z"/>
        <path fill="#EBC1CA" d="M44.466 28.726a4.904 4.904 0 0 0-1.475-.226h-4.98c-2.682 0-4.843 2.122-4.843 4.768v3.414H31.5v6.939A20.95 20.95 0 0 1 24 45C12.402 45 3 35.597 3 24 3 12.402 12.402 3 24 3s21 9.402 21 21c0 1.625-.185 3.207-.534 4.726z"/>
        <path fill="#FFF" d="M43.735 28.556a4.944 4.944 0 0 0-.744-.056h-4.98c-2.682 0-4.843 2.122-4.843 4.768v3.414H31.5v6.134A20.195 20.195 0 0 1 24 44.25C12.816 44.25 3.75 35.183 3.75 24 3.75 12.816 12.816 3.75 24 3.75S44.25 12.816 44.25 24a20.29 20.29 0 0 1-.515 4.556z"/>
        <path fill="url(#topic-unread-locked-color-prosilver-a)" d="M42.206 28.5h-4.195c-2.682 0-4.843 2.122-4.843 4.768v3.414H31.5v4.508a18.686 18.686 0 0 1-7.5 1.56C13.645 42.75 5.25 34.355 5.25 24S13.645 5.25 24 5.25 42.75 13.645 42.75 24c0 1.551-.188 3.058-.544 4.5z"/>
        <path fill="#BC2A4D" d="M13.09 20H36v-2H12v2h1.09zm0 4H36v-2H12v2h1.09zm0 4H36v-2H12v2h1.09zm-.18 4H32v-2H12v2h.91zm-.183 4H28v-2H12v2h.727zm.023-20H24v-2H12v2h.75z"/>
        <path fill="#666" d="M36 42v-1.5h9V42h-9zm0 3v-1.5h9V45h-9zm1.5-12h6v4.5h-6V33zm8.833 5.182v-4.914c0-1.803-1.497-3.268-3.342-3.268h-4.98c-1.867 0-3.343 1.464-3.343 3.268v4.914H33V48h15v-9.818h-1.667z"/>
    </g>
</svg>
