<svg xmlns="http://www.w3.org/2000/svg" viewBox="0 0 24 24">
    <path d="M9 5.9a2.1 2.1 0 1 0 0 4.2 2.1 2.1 0 0 0 0-4.2zm0 9c-2.97 0-6.1 1.46-6.1 2.1v1.1h12.2V17c0-.64-3.13-2.1-6.1-2.1zM9 4c2.21 0 4 1.79 4 4s-1.79 4-4 4-4-1.79-4-4 1.79-4 4-4zm0 9c2.67 0 8 1.34 8 4v3H1v-3c0-2.66 5.33-4 8-4zm13.056-1.608l.868.66c.078.06.099.168.05.256l-.823 1.384c-.05.088-.156.124-.251.088l-1.024-.4a3.182 3.182 0 0 1-.695.392l-.156 1.06a.199.199 0 0 1-.202.168h-1.645a.199.199 0 0 1-.201-.168l-.156-1.06a3.026 3.026 0 0 1-.695-.392l-1.024.4a.21.21 0 0 1-.251-.088l-.822-1.384a.198.198 0 0 1 .049-.256l.868-.66a3.087 3.087 0 0 1-.03-.392c0-.132.013-.264.03-.392l-.868-.66a.194.194 0 0 1-.05-.256l.823-1.384c.05-.088.156-.124.25-.088l1.025.4c.214-.156.444-.292.695-.392l.156-1.06A.199.199 0 0 1 18.178 7h1.645c.103 0 .19.072.202.168l.156 1.06c.251.1.481.232.695.392l1.024-.4a.21.21 0 0 1 .25.088l.823 1.384a.198.198 0 0 1-.049.256l-.868.66c.017.128.03.256.03.392s-.013.264-.03.392zM19.001 12.4c.794 0 1.44-.628 1.44-1.4 0-.772-.646-1.4-1.44-1.4-.794 0-1.44.628-1.44 1.4 0 .772.646 1.4 1.44 1.4z"/>
</svg>
