<svg xmlns="http://www.w3.org/2000/svg" viewBox="0 0 24 24">
    <path d="M14.998 5.9a2.1 2.1 0 1 0 0 4.2 2.1 2.1 0 0 0 0-4.2zm0 9c-2.97 0-6.1 1.46-6.1 2.1v1.1h12.2V17c0-.64-3.13-2.1-6.1-2.1zm0-10.9c2.21 0 4 1.79 4 4s-1.79 4-4 4-4-1.79-4-4 1.79-4 4-4zm0 9c2.67 0 8 1.34 8 4v3h-16v-3c0-2.66 5.33-4 8-4zM5 7.006c2.206 0 4 1.794 4 4s-1.794 4-4 4-4-1.794-4-4 1.794-4 4-4zm0 1.333a2.67 2.67 0 0 0-2.666 2.666c0 .494.143.95.377 1.346l3.636-3.634A2.642 2.642 0 0 0 5 8.339zm0 5.334a2.669 2.669 0 0 0 2.666-2.666c0-.494-.143-.95-.377-1.347l-3.636 3.635c.398.234.854.378 1.347.378z"/>
</svg>
