<svg xmlns="http://www.w3.org/2000/svg" viewBox="0 0 24 24">
    <path d="M12 2c5.514 0 10 4.486 10 10s-4.486 10-10 10S2 17.514 2 12 6.486 2 12 2zm0 18c4.411 0 8-3.589 8-8s-3.589-8-8-8-8 3.589-8 8 3.589 8 8 8zm0-13.001c2.758 0 5 2.243 5 5 0 2.758-2.242 5-5 5s-5-2.242-5-5 2.242-5 5-5zm0 1.667a3.335 3.335 0 0 0-3.332 3.332 3.3 3.3 0 0 0 .471 1.684l4.544-4.545A3.31 3.31 0 0 0 12 8.666zm0 6.666A3.337 3.337 0 0 0 15.333 12c0-.617-.178-1.187-.471-1.683l-4.544 4.544a3.294 3.294 0 0 0 1.682.471z"/>
</svg>
