<svg xmlns="http://www.w3.org/2000/svg" viewBox="0 0 24 24">
    <path d="M12.198 19.998a7.997 7.997 0 0 0 2.156-.352 4.005 4.005 0 0 1 5.291-5.291 7.997 7.997 0 0 0 .001 0A4.006 4.006 0 0 1 22 18c0 2.206-1.794 4-4 4a4.005 4.005 0 0 1-3.646-2.354 7.96 7.96 0 0 1-2.156.352zM12 20v2a10 10 0 1 1 10-10h-2a8 8 0 1 0-8 8zM10.998 9h6v2h-6V9zm3.684 4a6.03 6.03 0 0 0-1.88 2h-1.804v-2h3.684zm-6.684-2a1 1 0 1 1 0-2 1 1 0 0 1 0 2zm0 4a1 1 0 1 1 0-2 1 1 0 0 1 0 2zM18 16c-1.103 0-2 .897-2 2s.897 2 2 2 2-.897 2-2-.897-2-2-2z"/>
</svg>
