<svg xmlns="http://www.w3.org/2000/svg" viewBox="0 0 24 24">
    <path d="M12 2a10 10 0 0 1 10 10c0 5.523-4.477 10-10 10a10 10 0 1 1 0-20zm0 2a8 8 0 1 0 0 16 8 8 0 0 0 0-16zm2.972 7.556l-.028.005c.184.211.334.439.445.695l.072.144c.528 1.267.167 2.744-.833 3.667-.895.822-2.145 1.039-3.311.889-1.095-.14-2.111-.828-2.69-1.79a3.388 3.388 0 0 1-.4-.96 3.375 3.375 0 0 1-.15-.834c-.077-1.205.417-2.483 1.329-3.239-.417.911-.317 2.05.294 2.845.028.039.05.066.083.094.1.09.234.122.356.067a.308.308 0 0 0 .194-.278.469.469 0 0 0-.044-.183c-.667-1.75-.111-3.79 1.3-4.945.389-.316.855-.605 1.361-.733-.506 1.028-.339 2.367.472 3.178.35.35.767.589 1.128.922.144.144.294.289.422.456zm-1.722 3.5h-.006c.334-.306.528-.806.512-1.262a.856.856 0 0 0-.034-.238c-.139-.756-.8-1-1.222-1.556a3.006 3.006 0 0 1-.333-.589c-.156.383-.167.733-.1 1.145.072.427.244.794.15 1.238-.111.495-.5.984-1.161 1.14.372.366.983.677 1.594.455.194-.056.444-.2.6-.333z"/>
</svg>
