<svg xmlns="http://www.w3.org/2000/svg" viewBox="0 0 24 24">
    <path d="M12 20v2A10 10 0 0 1 2 12h2a8 8 0 0 0 8 8zm8-8a8 8 0 0 0-8-8V2a10 10 0 0 1 10 10h-2zM6 2l1.09 2.91L10 6 7.09 7.09 6 10 4.91 7.09 2 6l2.91-1.09L6 2zm15 14v1c.48 0 1 .44 1 1v3c0 .48-.44 1-1 1h-4c-.48 0-1-.44-1-1v-3c0-.48.52-1 1-1v-1c0-1.12.88-2 2-2s2 .88 2 2zm-1 1v-1c0-.64-.36-1-1-1s-1 .36-1 1v1h2zm-5.028-5.444l-.028.005c.184.211.334.439.445.695l.072.144c.528 1.267.167 2.744-.833 3.667-.895.822-2.145 1.039-3.311.889-1.095-.14-2.111-.828-2.69-1.79a3.388 3.388 0 0 1-.4-.96 3.375 3.375 0 0 1-.15-.834c-.077-1.205.417-2.483 1.329-3.239-.417.911-.317 2.05.294 2.845.028.039.05.066.083.094.1.09.234.122.356.067a.308.308 0 0 0 .194-.278.469.469 0 0 0-.044-.183c-.667-1.75-.111-3.79 1.3-4.945.389-.316.855-.605 1.361-.733-.506 1.028-.339 2.367.472 3.178.35.35.767.589 1.128.922.144.144.294.289.422.456zm-1.722 3.5h-.006c.334-.306.528-.806.512-1.262a.856.856 0 0 0-.034-.238c-.139-.756-.8-1-1.222-1.556a3.006 3.006 0 0 1-.333-.589c-.156.383-.167.733-.1 1.145.072.427.244.794.15 1.238-.111.495-.5.984-1.161 1.14.372.366.983.677 1.594.455.194-.056.444-.2.6-.333z"/>
</svg>
