<svg xmlns="http://www.w3.org/2000/svg" viewBox="0 0 24 24">
    <path fill-rule="evenodd" d="M12 22H6c-1.103 0-2-.897-2-2v-8h2v8h6v2zm8-10h-2V8h-4V4h-2V2h3.414L20 6.586V12zm1 4v1c.48 0 1 .44 1 1v3c0 .48-.44 1-1 1h-4c-.48 0-1-.44-1-1v-3c0-.48.52-1 1-1v-1c0-1.12.88-2 2-2s2 .88 2 2zm-1 1v-1c0-.64-.36-1-1-1s-1 .36-1 1v1h2zM6 2l1.09 2.91L10 6 7.09 7.09 6 10 4.91 7.09 2 6l2.91-1.09L6 2zm8.522 11.644l-.022.005c.146.169.266.351.355.555l.058.116c.422 1.013.133 2.196-.667 2.933-.715.658-1.715.831-2.649.711-.875-.11-1.688-.662-2.15-1.43a2.71 2.71 0 0 1-.32-.77 2.7 2.7 0 0 1-.12-.666c-.063-.965.333-1.987 1.062-2.591-.334.729-.254 1.64.235 2.275.022.031.04.054.067.076.08.07.186.098.284.053a.246.246 0 0 0 .156-.222c0-.058-.018-.102-.036-.147-.533-1.4-.089-3.03 1.04-3.955.311-.254.685-.485 1.09-.587-.405.822-.272 1.893.377 2.542.28.28.613.471.902.738.116.116.236.231.338.364zm-1.378 2.8h-.004c.266-.244.422-.644.409-1.008a.685.685 0 0 0-.027-.192c-.111-.604-.64-.8-.978-1.244a2.405 2.405 0 0 1-.267-.471c-.124.307-.133.587-.08.915.058.343.196.636.12.992-.088.395-.4.786-.928.91.297.294.786.543 1.275.365a1.46 1.46 0 0 0 .48-.267z"/>
</svg>
