<svg xmlns="http://www.w3.org/2000/svg" viewBox="0 0 24 24">
    <path fill-rule="evenodd" d="M15.414 2L20 6.586V20c0 1.103-.897 2-2 2H6c-1.103 0-2-.897-2-2V4c0-1.102.897-2 2-2h9.414zm2.587 18L18 8h-4V4H6v16h12.001zm-3.48-6.356l-.021.005c.146.169.266.351.355.555l.058.116c.422 1.013.133 2.196-.667 2.933-.715.658-1.715.831-2.649.711-.875-.11-1.688-.662-2.15-1.43a2.71 2.71 0 0 1-.32-.77 2.7 2.7 0 0 1-.12-.666c-.063-.965.333-1.987 1.062-2.591-.334.729-.254 1.64.235 2.275.022.031.04.054.067.076.08.07.186.098.284.053a.246.246 0 0 0 .156-.222c0-.058-.018-.102-.036-.147-.533-1.4-.089-3.03 1.04-3.955.311-.254.685-.485 1.09-.587-.405.822-.272 1.893.377 2.542.28.28.613.471.902.738.116.116.236.231.338.364zm-1.377 2.8h-.004c.266-.244.422-.644.409-1.008a.685.685 0 0 0-.027-.192c-.111-.604-.64-.8-.978-1.244a2.405 2.405 0 0 1-.267-.471c-.124.307-.133.587-.08.915.058.343.196.636.12.992-.088.395-.4.786-.928.91.297.294.786.543 1.275.365a1.46 1.46 0 0 0 .48-.267z"/>
</svg>
