<svg xmlns="http://www.w3.org/2000/svg" viewBox="0 0 24 24">
    <path fill-rule="evenodd" d="M12 22H6c-1.103 0-2-.897-2-2v-8h2v8h6v2zm8-10h-2V8h-4V4h-2V2h3.414L20 6.586V12zm1 4v1c.48 0 1 .44 1 1v3c0 .48-.44 1-1 1h-4c-.48 0-1-.44-1-1v-3c0-.48.52-1 1-1v-1c0-1.12.88-2 2-2s2 .88 2 2zm-1 1v-1c0-.64-.36-1-1-1s-1 .36-1 1v1h2zM6 2l1.09 2.91L10 6 7.09 7.09 6 10 4.91 7.09 2 6l2.91-1.09L6 2zm3.513 16l.669-2.978L8 13.047l2.873-.283L12 10l1.127 2.794 2.873.253-2.182 1.975.67 2.978L12 16.423 9.513 18z"/>
</svg>
