<svg xmlns="http://www.w3.org/2000/svg" viewBox="0 0 24 24">
    <path fill-rule="evenodd" d="M20.947 19H9.368c-.425 0-.81-.263-.972-.664a1.097 1.097 0 0 1 .228-1.174l3.695-3.78c-.548-1.764-2.156-2.997-4.003-2.997-2.321 0-4.209 1.93-4.21 4.305v.002c0 .595-.471 1.077-1.053 1.077A1.065 1.065 0 0 1 2 14.692v-.005C2.002 9.345 6.252 5 11.474 5c2.418 0 4.718.947 6.467 2.63l2.262-2.314c.301-.308.753-.4 1.148-.234.392.167.649.56.649.995v11.846C22 18.52 21.53 19 20.947 19zm-9.038-2.154h7.986v-8.17l-1.23 1.258c-.21.215-.49.329-.791.315a1.046 1.046 0 0 1-.761-.385c-1.41-1.723-3.465-2.71-5.64-2.71A7.2 7.2 0 0 0 7.62 8.27c.23-.025.461-.04.697-.04 3.042 0 5.65 2.226 6.202 5.29.063.347-.046.706-.29.957l-2.319 2.37z"/>
</svg>
