<svg xmlns="http://www.w3.org/2000/svg" viewBox="0 0 24 24">
    <path fill-rule="evenodd" d="M21.167 7.333c.46 0 .833.374.833.834V16.5c0 .46-.372.833-.833.833h-2.519c-1.521 2.02-3.93 3.334-6.648 3.334-2.717 0-5.128-1.314-6.648-3.334H2.833A.833.833 0 0 1 2 16.5V8.167c0-.46.373-.834.833-.834h2.519C6.873 5.314 9.282 4 12 4c2.718 0 5.127 1.314 6.648 3.333h2.519zm-4.781 0a6.875 6.875 0 0 0-1.053-.758v.758h1.053zm-2.72-1.447A6.627 6.627 0 0 0 12 5.666c-.576 0-1.133.081-1.667.22v1.447h3.334V5.886zm-5 .689a6.97 6.97 0 0 0-1.052.758h1.053v-.758zM7.615 17.333a6.7 6.7 0 0 0 1.053.76v-.76H7.614zm2.72 1.449a6.64 6.64 0 0 0 1.666.218c.576 0 1.133-.08 1.667-.218v-1.449h-3.334v1.449zm5-.69a6.66 6.66 0 0 0 1.052-.759h-1.053v.76zm5-2.425V9H3.666v6.667h16.666zM6.36 14l-.817-3.333h.833l.41 1.626.4-1.626h.857l.41 1.626.4-1.626h.856l-.833 3.298.009.035h-.858l-.407-1.66-.41 1.625.008.035H6.36zm4.167 0l-.818-3.333h.834l.41 1.626.399-1.626h.856l.411 1.626.4-1.626h.856l-.832 3.3.008.033h-.858l-.407-1.66-.41 1.627.008.033h-.857zm5.024 0h-.858l-.818-3.333h.833l.411 1.626.4-1.626h.856l.41 1.626.4-1.626h.857l-.833 3.3.009.033h-.858l-.407-1.66-.41 1.627.008.033z"/>
</svg>
